<mxfile host="app.diagrams.net" modified="2021-04-30T15:17:02.933Z" agent="5.0 (Windows NT 10.0; Win64; x64) AppleWebKit/537.36 (KHTML, like Gecko) Chrome/90.0.4430.93 Safari/537.36" etag="pqxBtd8a1eTAdC0oKvm2" version="14.6.9" type="github" pages="2">
  <diagram id="C5RBs43oDa-KdzZeNtuy" name="Page-1">
    <mxGraphModel dx="3195" dy="1273" grid="1" gridSize="10" guides="1" tooltips="1" connect="1" arrows="1" fold="1" page="1" pageScale="0.5" pageWidth="827" pageHeight="1169" math="0" shadow="0">
      <root>
        <mxCell id="WIyWlLk6GJQsqaUBKTNV-0" />
        <mxCell id="WIyWlLk6GJQsqaUBKTNV-1" parent="WIyWlLk6GJQsqaUBKTNV-0" />
        <mxCell id="WIyWlLk6GJQsqaUBKTNV-2" value="" style="rounded=0;html=1;jettySize=auto;orthogonalLoop=1;fontSize=11;endArrow=classic;endFill=1;endSize=8;strokeWidth=1;shadow=0;labelBackgroundColor=none;edgeStyle=orthogonalEdgeStyle;" parent="WIyWlLk6GJQsqaUBKTNV-1" source="WIyWlLk6GJQsqaUBKTNV-3" target="WIyWlLk6GJQsqaUBKTNV-6" edge="1">
          <mxGeometry relative="1" as="geometry" />
        </mxCell>
        <mxCell id="WIyWlLk6GJQsqaUBKTNV-3" value="Inicio" style="rounded=1;whiteSpace=wrap;html=1;fontSize=12;glass=0;strokeWidth=1;shadow=0;" parent="WIyWlLk6GJQsqaUBKTNV-1" vertex="1">
          <mxGeometry x="185" y="40" width="70" height="40" as="geometry" />
        </mxCell>
        <mxCell id="WIyWlLk6GJQsqaUBKTNV-4" value="Yes" style="rounded=0;html=1;jettySize=auto;orthogonalLoop=1;fontSize=11;endArrow=classic;endFill=1;endSize=8;strokeWidth=1;shadow=0;labelBackgroundColor=none;edgeStyle=orthogonalEdgeStyle;entryX=0.5;entryY=0;entryDx=0;entryDy=0;" parent="WIyWlLk6GJQsqaUBKTNV-1" source="WIyWlLk6GJQsqaUBKTNV-6" target="BhRJRYYAKcvQ0J8DfjrN-0" edge="1">
          <mxGeometry y="20" relative="1" as="geometry">
            <mxPoint as="offset" />
            <mxPoint x="220" y="250" as="targetPoint" />
          </mxGeometry>
        </mxCell>
        <mxCell id="WIyWlLk6GJQsqaUBKTNV-5" value="No" style="edgeStyle=orthogonalEdgeStyle;rounded=0;html=1;jettySize=auto;orthogonalLoop=1;fontSize=11;endArrow=classic;endFill=1;endSize=8;strokeWidth=1;shadow=0;labelBackgroundColor=none;" parent="WIyWlLk6GJQsqaUBKTNV-1" source="WIyWlLk6GJQsqaUBKTNV-6" target="WIyWlLk6GJQsqaUBKTNV-7" edge="1">
          <mxGeometry y="10" relative="1" as="geometry">
            <mxPoint as="offset" />
          </mxGeometry>
        </mxCell>
        <mxCell id="WIyWlLk6GJQsqaUBKTNV-6" value="¿La ruta es absoluta?" style="rhombus;whiteSpace=wrap;html=1;shadow=0;fontFamily=Helvetica;fontSize=12;align=center;strokeWidth=1;spacing=6;spacingTop=-4;" parent="WIyWlLk6GJQsqaUBKTNV-1" vertex="1">
          <mxGeometry x="170" y="120" width="100" height="80" as="geometry" />
        </mxCell>
        <mxCell id="BhRJRYYAKcvQ0J8DfjrN-45" style="edgeStyle=orthogonalEdgeStyle;rounded=0;orthogonalLoop=1;jettySize=auto;html=1;entryX=0.5;entryY=0;entryDx=0;entryDy=0;endArrow=classic;endFill=1;" parent="WIyWlLk6GJQsqaUBKTNV-1" source="WIyWlLk6GJQsqaUBKTNV-7" target="BhRJRYYAKcvQ0J8DfjrN-1" edge="1">
          <mxGeometry relative="1" as="geometry">
            <Array as="points">
              <mxPoint x="380" y="300" />
              <mxPoint x="220" y="300" />
            </Array>
          </mxGeometry>
        </mxCell>
        <mxCell id="WIyWlLk6GJQsqaUBKTNV-7" value="Convertir a ruta absoluta" style="rounded=1;whiteSpace=wrap;html=1;fontSize=12;glass=0;strokeWidth=1;shadow=0;arcSize=0;" parent="WIyWlLk6GJQsqaUBKTNV-1" vertex="1">
          <mxGeometry x="330" y="140" width="100" height="40" as="geometry" />
        </mxCell>
        <mxCell id="WIyWlLk6GJQsqaUBKTNV-9" value="Yes" style="edgeStyle=orthogonalEdgeStyle;rounded=0;html=1;jettySize=auto;orthogonalLoop=1;fontSize=11;endArrow=classic;endFill=1;endSize=8;strokeWidth=1;shadow=0;labelBackgroundColor=none;exitX=0.5;exitY=1;exitDx=0;exitDy=0;entryX=0.5;entryY=0;entryDx=0;entryDy=0;" parent="WIyWlLk6GJQsqaUBKTNV-1" source="BhRJRYYAKcvQ0J8DfjrN-17" target="BhRJRYYAKcvQ0J8DfjrN-20" edge="1">
          <mxGeometry x="-0.1111" y="20" relative="1" as="geometry">
            <mxPoint as="offset" />
            <mxPoint x="270" y="210" as="sourcePoint" />
            <mxPoint x="320" y="210" as="targetPoint" />
          </mxGeometry>
        </mxCell>
        <mxCell id="BhRJRYYAKcvQ0J8DfjrN-3" style="edgeStyle=orthogonalEdgeStyle;rounded=0;orthogonalLoop=1;jettySize=auto;html=1;exitX=0.5;exitY=1;exitDx=0;exitDy=0;entryX=0.5;entryY=0;entryDx=0;entryDy=0;endArrow=classic;endFill=1;" parent="WIyWlLk6GJQsqaUBKTNV-1" source="BhRJRYYAKcvQ0J8DfjrN-0" target="BhRJRYYAKcvQ0J8DfjrN-1" edge="1">
          <mxGeometry relative="1" as="geometry" />
        </mxCell>
        <mxCell id="BhRJRYYAKcvQ0J8DfjrN-0" value="La ruta absoluta se queda igual" style="rounded=1;whiteSpace=wrap;html=1;arcSize=0;" parent="WIyWlLk6GJQsqaUBKTNV-1" vertex="1">
          <mxGeometry x="160" y="240" width="120" height="40" as="geometry" />
        </mxCell>
        <mxCell id="BhRJRYYAKcvQ0J8DfjrN-1" value="¿Existe en su computador?" style="rhombus;whiteSpace=wrap;html=1;" parent="WIyWlLk6GJQsqaUBKTNV-1" vertex="1">
          <mxGeometry x="160" y="320" width="120" height="80" as="geometry" />
        </mxCell>
        <mxCell id="BhRJRYYAKcvQ0J8DfjrN-51" style="edgeStyle=orthogonalEdgeStyle;rounded=0;orthogonalLoop=1;jettySize=auto;html=1;entryX=0;entryY=0.5;entryDx=0;entryDy=0;endArrow=classic;endFill=1;" parent="WIyWlLk6GJQsqaUBKTNV-1" source="BhRJRYYAKcvQ0J8DfjrN-11" target="BhRJRYYAKcvQ0J8DfjrN-50" edge="1">
          <mxGeometry relative="1" as="geometry">
            <mxPoint x="510" y="360" as="sourcePoint" />
          </mxGeometry>
        </mxCell>
        <mxCell id="BhRJRYYAKcvQ0J8DfjrN-11" value="Retorna promesa con mensaje de error: &quot;not found&quot;." style="whiteSpace=wrap;html=1;" parent="WIyWlLk6GJQsqaUBKTNV-1" vertex="1">
          <mxGeometry x="330" y="340" width="130" height="40" as="geometry" />
        </mxCell>
        <mxCell id="BhRJRYYAKcvQ0J8DfjrN-17" value="¿Hay archivos .md?" style="rhombus;whiteSpace=wrap;html=1;" parent="WIyWlLk6GJQsqaUBKTNV-1" vertex="1">
          <mxGeometry x="170" y="640" width="100" height="80" as="geometry" />
        </mxCell>
        <mxCell id="BhRJRYYAKcvQ0J8DfjrN-24" value="" style="edgeStyle=orthogonalEdgeStyle;rounded=0;orthogonalLoop=1;jettySize=auto;html=1;endArrow=classic;endFill=1;" parent="WIyWlLk6GJQsqaUBKTNV-1" source="BhRJRYYAKcvQ0J8DfjrN-20" target="BhRJRYYAKcvQ0J8DfjrN-46" edge="1">
          <mxGeometry relative="1" as="geometry">
            <mxPoint x="220" y="680" as="targetPoint" />
          </mxGeometry>
        </mxCell>
        <mxCell id="BhRJRYYAKcvQ0J8DfjrN-20" value="Leer archivo" style="whiteSpace=wrap;html=1;" parent="WIyWlLk6GJQsqaUBKTNV-1" vertex="1">
          <mxGeometry x="175" y="760" width="90" height="40" as="geometry" />
        </mxCell>
        <mxCell id="E7rHuDmB5QC5V3yIihRZ-7" style="edgeStyle=orthogonalEdgeStyle;rounded=0;orthogonalLoop=1;jettySize=auto;html=1;exitX=0.5;exitY=1;exitDx=0;exitDy=0;" parent="WIyWlLk6GJQsqaUBKTNV-1" source="BhRJRYYAKcvQ0J8DfjrN-25" target="BhRJRYYAKcvQ0J8DfjrN-38" edge="1">
          <mxGeometry relative="1" as="geometry" />
        </mxCell>
        <mxCell id="BhRJRYYAKcvQ0J8DfjrN-25" value="Retorne un array con objetos (propiedades: href/text/file)" style="whiteSpace=wrap;html=1;" parent="WIyWlLk6GJQsqaUBKTNV-1" vertex="1">
          <mxGeometry x="250" y="1160" width="140" height="40" as="geometry" />
        </mxCell>
        <mxCell id="BhRJRYYAKcvQ0J8DfjrN-43" style="edgeStyle=orthogonalEdgeStyle;rounded=0;orthogonalLoop=1;jettySize=auto;html=1;entryX=1;entryY=0.5;entryDx=0;entryDy=0;endArrow=classic;endFill=1;" parent="WIyWlLk6GJQsqaUBKTNV-1" source="BhRJRYYAKcvQ0J8DfjrN-32" target="BhRJRYYAKcvQ0J8DfjrN-38" edge="1">
          <mxGeometry relative="1" as="geometry">
            <Array as="points">
              <mxPoint x="400" y="1260" />
            </Array>
          </mxGeometry>
        </mxCell>
        <mxCell id="BhRJRYYAKcvQ0J8DfjrN-32" value="Respuesta que no hay links al usuario" style="whiteSpace=wrap;html=1;" parent="WIyWlLk6GJQsqaUBKTNV-1" vertex="1">
          <mxGeometry x="335" y="860" width="120" height="40" as="geometry" />
        </mxCell>
        <mxCell id="BhRJRYYAKcvQ0J8DfjrN-35" value="Yes" style="rounded=0;html=1;jettySize=auto;orthogonalLoop=1;fontSize=11;endArrow=classic;endFill=1;endSize=8;strokeWidth=1;shadow=0;labelBackgroundColor=none;edgeStyle=orthogonalEdgeStyle;exitX=0.5;exitY=1;exitDx=0;exitDy=0;entryX=0.5;entryY=0;entryDx=0;entryDy=0;" parent="WIyWlLk6GJQsqaUBKTNV-1" source="BhRJRYYAKcvQ0J8DfjrN-1" target="BhRJRYYAKcvQ0J8DfjrN-49" edge="1">
          <mxGeometry y="20" relative="1" as="geometry">
            <mxPoint as="offset" />
            <mxPoint x="230" y="220" as="sourcePoint" />
            <mxPoint x="230" y="260" as="targetPoint" />
          </mxGeometry>
        </mxCell>
        <mxCell id="BhRJRYYAKcvQ0J8DfjrN-36" value="No" style="edgeStyle=orthogonalEdgeStyle;rounded=0;html=1;jettySize=auto;orthogonalLoop=1;fontSize=11;endArrow=classic;endFill=1;endSize=8;strokeWidth=1;shadow=0;labelBackgroundColor=none;exitX=1;exitY=0.5;exitDx=0;exitDy=0;entryX=0;entryY=0.5;entryDx=0;entryDy=0;" parent="WIyWlLk6GJQsqaUBKTNV-1" source="BhRJRYYAKcvQ0J8DfjrN-1" target="BhRJRYYAKcvQ0J8DfjrN-11" edge="1">
          <mxGeometry y="10" relative="1" as="geometry">
            <mxPoint as="offset" />
            <mxPoint x="280" y="350" as="sourcePoint" />
            <mxPoint x="330" y="180" as="targetPoint" />
          </mxGeometry>
        </mxCell>
        <mxCell id="BhRJRYYAKcvQ0J8DfjrN-37" value="Yes" style="edgeStyle=orthogonalEdgeStyle;rounded=0;html=1;jettySize=auto;orthogonalLoop=1;fontSize=11;endArrow=classic;endFill=1;endSize=8;strokeWidth=1;shadow=0;labelBackgroundColor=none;entryX=0.5;entryY=0;entryDx=0;entryDy=0;" parent="WIyWlLk6GJQsqaUBKTNV-1" source="BhRJRYYAKcvQ0J8DfjrN-46" target="C8ftDMsVp3lCdtYubEuG-0" edge="1">
          <mxGeometry x="-0.1111" y="20" relative="1" as="geometry">
            <mxPoint as="offset" />
            <mxPoint x="220" y="950" as="sourcePoint" />
            <mxPoint x="220" y="960" as="targetPoint" />
          </mxGeometry>
        </mxCell>
        <mxCell id="BhRJRYYAKcvQ0J8DfjrN-38" value="Fin" style="rounded=1;whiteSpace=wrap;html=1;" parent="WIyWlLk6GJQsqaUBKTNV-1" vertex="1">
          <mxGeometry x="190" y="1240" width="60" height="40" as="geometry" />
        </mxCell>
        <mxCell id="BhRJRYYAKcvQ0J8DfjrN-41" value="No" style="edgeStyle=orthogonalEdgeStyle;rounded=0;html=1;jettySize=auto;orthogonalLoop=1;fontSize=11;endArrow=classic;endFill=1;endSize=8;strokeWidth=1;shadow=0;labelBackgroundColor=none;exitX=1;exitY=0.5;exitDx=0;exitDy=0;entryX=0;entryY=0.5;entryDx=0;entryDy=0;" parent="WIyWlLk6GJQsqaUBKTNV-1" source="BhRJRYYAKcvQ0J8DfjrN-46" target="BhRJRYYAKcvQ0J8DfjrN-32" edge="1">
          <mxGeometry y="10" relative="1" as="geometry">
            <mxPoint as="offset" />
            <mxPoint x="280" y="860" as="sourcePoint" />
            <mxPoint x="360" y="600" as="targetPoint" />
          </mxGeometry>
        </mxCell>
        <mxCell id="BhRJRYYAKcvQ0J8DfjrN-46" value="&lt;span&gt;¿Hay links?&lt;/span&gt;" style="rhombus;whiteSpace=wrap;html=1;" parent="WIyWlLk6GJQsqaUBKTNV-1" vertex="1">
          <mxGeometry x="170" y="840" width="100" height="80" as="geometry" />
        </mxCell>
        <mxCell id="BhRJRYYAKcvQ0J8DfjrN-48" value="No" style="edgeStyle=orthogonalEdgeStyle;rounded=0;html=1;jettySize=auto;orthogonalLoop=1;fontSize=11;endArrow=classic;endFill=1;endSize=8;strokeWidth=1;shadow=0;labelBackgroundColor=none;exitX=1;exitY=0.5;exitDx=0;exitDy=0;entryX=0.5;entryY=1;entryDx=0;entryDy=0;" parent="WIyWlLk6GJQsqaUBKTNV-1" source="BhRJRYYAKcvQ0J8DfjrN-17" target="BhRJRYYAKcvQ0J8DfjrN-74" edge="1">
          <mxGeometry y="10" relative="1" as="geometry">
            <mxPoint as="offset" />
            <mxPoint x="290" y="290" as="sourcePoint" />
            <mxPoint x="330" y="680" as="targetPoint" />
          </mxGeometry>
        </mxCell>
        <mxCell id="BhRJRYYAKcvQ0J8DfjrN-49" value="¿Es una carpeta?" style="rhombus;whiteSpace=wrap;html=1;" parent="WIyWlLk6GJQsqaUBKTNV-1" vertex="1">
          <mxGeometry x="175" y="440" width="90" height="80" as="geometry" />
        </mxCell>
        <mxCell id="BhRJRYYAKcvQ0J8DfjrN-50" value="1" style="ellipse;whiteSpace=wrap;html=1;aspect=fixed;" parent="WIyWlLk6GJQsqaUBKTNV-1" vertex="1">
          <mxGeometry x="500" y="340" width="40" height="40" as="geometry" />
        </mxCell>
        <mxCell id="BhRJRYYAKcvQ0J8DfjrN-53" value="" style="edgeStyle=orthogonalEdgeStyle;rounded=0;orthogonalLoop=1;jettySize=auto;html=1;endArrow=classic;endFill=1;" parent="WIyWlLk6GJQsqaUBKTNV-1" source="BhRJRYYAKcvQ0J8DfjrN-52" target="BhRJRYYAKcvQ0J8DfjrN-38" edge="1">
          <mxGeometry relative="1" as="geometry" />
        </mxCell>
        <mxCell id="BhRJRYYAKcvQ0J8DfjrN-52" value="1" style="ellipse;whiteSpace=wrap;html=1;aspect=fixed;" parent="WIyWlLk6GJQsqaUBKTNV-1" vertex="1">
          <mxGeometry x="120" y="1240" width="40" height="40" as="geometry" />
        </mxCell>
        <mxCell id="BhRJRYYAKcvQ0J8DfjrN-61" style="edgeStyle=orthogonalEdgeStyle;rounded=0;orthogonalLoop=1;jettySize=auto;html=1;exitX=0.5;exitY=1;exitDx=0;exitDy=0;entryX=0.5;entryY=0;entryDx=0;entryDy=0;endArrow=classic;endFill=1;" parent="WIyWlLk6GJQsqaUBKTNV-1" source="BhRJRYYAKcvQ0J8DfjrN-54" target="BhRJRYYAKcvQ0J8DfjrN-17" edge="1">
          <mxGeometry relative="1" as="geometry" />
        </mxCell>
        <mxCell id="BhRJRYYAKcvQ0J8DfjrN-54" value="Recorrer los archivos" style="whiteSpace=wrap;html=1;rounded=0;" parent="WIyWlLk6GJQsqaUBKTNV-1" vertex="1">
          <mxGeometry x="172.5" y="560" width="95" height="40" as="geometry" />
        </mxCell>
        <mxCell id="BhRJRYYAKcvQ0J8DfjrN-59" value="Yes" style="edgeStyle=orthogonalEdgeStyle;rounded=0;html=1;jettySize=auto;orthogonalLoop=1;fontSize=11;endArrow=classic;endFill=1;endSize=8;strokeWidth=1;shadow=0;labelBackgroundColor=none;exitX=0.5;exitY=1;exitDx=0;exitDy=0;entryX=0.5;entryY=0;entryDx=0;entryDy=0;" parent="WIyWlLk6GJQsqaUBKTNV-1" source="BhRJRYYAKcvQ0J8DfjrN-49" target="BhRJRYYAKcvQ0J8DfjrN-54" edge="1">
          <mxGeometry x="-0.1111" y="20" relative="1" as="geometry">
            <mxPoint as="offset" />
            <mxPoint x="230" y="530" as="sourcePoint" />
            <mxPoint x="230" y="570" as="targetPoint" />
          </mxGeometry>
        </mxCell>
        <mxCell id="BhRJRYYAKcvQ0J8DfjrN-63" value="¿Es un archivo .md?" style="rhombus;whiteSpace=wrap;html=1;" parent="WIyWlLk6GJQsqaUBKTNV-1" vertex="1">
          <mxGeometry x="330" y="440" width="105" height="80" as="geometry" />
        </mxCell>
        <mxCell id="BhRJRYYAKcvQ0J8DfjrN-65" value="No" style="edgeStyle=orthogonalEdgeStyle;rounded=0;html=1;jettySize=auto;orthogonalLoop=1;fontSize=11;endArrow=classic;endFill=1;endSize=8;strokeWidth=1;shadow=0;labelBackgroundColor=none;exitX=1;exitY=0.5;exitDx=0;exitDy=0;entryX=0;entryY=0.5;entryDx=0;entryDy=0;" parent="WIyWlLk6GJQsqaUBKTNV-1" source="BhRJRYYAKcvQ0J8DfjrN-49" target="BhRJRYYAKcvQ0J8DfjrN-63" edge="1">
          <mxGeometry y="10" relative="1" as="geometry">
            <mxPoint as="offset" />
            <mxPoint x="290" y="370" as="sourcePoint" />
            <mxPoint x="340" y="370" as="targetPoint" />
          </mxGeometry>
        </mxCell>
        <mxCell id="BhRJRYYAKcvQ0J8DfjrN-66" value="Yes" style="edgeStyle=orthogonalEdgeStyle;rounded=0;html=1;jettySize=auto;orthogonalLoop=1;fontSize=11;endArrow=classic;endFill=1;endSize=8;strokeWidth=1;shadow=0;labelBackgroundColor=none;exitX=0.5;exitY=1;exitDx=0;exitDy=0;" parent="WIyWlLk6GJQsqaUBKTNV-1" source="BhRJRYYAKcvQ0J8DfjrN-63" edge="1">
          <mxGeometry x="-0.1111" y="20" relative="1" as="geometry">
            <mxPoint as="offset" />
            <mxPoint x="230" y="530" as="sourcePoint" />
            <mxPoint x="383" y="560" as="targetPoint" />
          </mxGeometry>
        </mxCell>
        <mxCell id="BhRJRYYAKcvQ0J8DfjrN-68" value="2" style="ellipse;whiteSpace=wrap;html=1;aspect=fixed;" parent="WIyWlLk6GJQsqaUBKTNV-1" vertex="1">
          <mxGeometry x="362.5" y="560" width="40" height="40" as="geometry" />
        </mxCell>
        <mxCell id="BhRJRYYAKcvQ0J8DfjrN-72" style="edgeStyle=orthogonalEdgeStyle;rounded=0;orthogonalLoop=1;jettySize=auto;html=1;exitX=1;exitY=0.5;exitDx=0;exitDy=0;entryX=0;entryY=0.5;entryDx=0;entryDy=0;endArrow=classic;endFill=1;" parent="WIyWlLk6GJQsqaUBKTNV-1" source="BhRJRYYAKcvQ0J8DfjrN-71" target="BhRJRYYAKcvQ0J8DfjrN-20" edge="1">
          <mxGeometry relative="1" as="geometry" />
        </mxCell>
        <mxCell id="BhRJRYYAKcvQ0J8DfjrN-71" value="2" style="ellipse;whiteSpace=wrap;html=1;aspect=fixed;" parent="WIyWlLk6GJQsqaUBKTNV-1" vertex="1">
          <mxGeometry x="100" y="760" width="40" height="40" as="geometry" />
        </mxCell>
        <mxCell id="BhRJRYYAKcvQ0J8DfjrN-73" value="No" style="edgeStyle=orthogonalEdgeStyle;rounded=0;html=1;jettySize=auto;orthogonalLoop=1;fontSize=11;endArrow=classic;endFill=1;endSize=8;strokeWidth=1;shadow=0;labelBackgroundColor=none;exitX=1;exitY=0.5;exitDx=0;exitDy=0;" parent="WIyWlLk6GJQsqaUBKTNV-1" source="BhRJRYYAKcvQ0J8DfjrN-63" target="BhRJRYYAKcvQ0J8DfjrN-74" edge="1">
          <mxGeometry y="10" relative="1" as="geometry">
            <mxPoint as="offset" />
            <mxPoint x="275" y="490" as="sourcePoint" />
            <mxPoint x="490" y="480" as="targetPoint" />
          </mxGeometry>
        </mxCell>
        <mxCell id="BhRJRYYAKcvQ0J8DfjrN-74" value="Avisar que no hay archivos .md para analizar" style="rounded=0;whiteSpace=wrap;html=1;" parent="WIyWlLk6GJQsqaUBKTNV-1" vertex="1">
          <mxGeometry x="480" y="460" width="110" height="40" as="geometry" />
        </mxCell>
        <mxCell id="BhRJRYYAKcvQ0J8DfjrN-75" style="edgeStyle=orthogonalEdgeStyle;rounded=0;orthogonalLoop=1;jettySize=auto;html=1;entryX=0;entryY=0.5;entryDx=0;entryDy=0;endArrow=classic;endFill=1;" parent="WIyWlLk6GJQsqaUBKTNV-1" source="BhRJRYYAKcvQ0J8DfjrN-74" target="BhRJRYYAKcvQ0J8DfjrN-76" edge="1">
          <mxGeometry relative="1" as="geometry">
            <mxPoint x="590" y="480" as="sourcePoint" />
          </mxGeometry>
        </mxCell>
        <mxCell id="BhRJRYYAKcvQ0J8DfjrN-76" value="1" style="ellipse;whiteSpace=wrap;html=1;aspect=fixed;" parent="WIyWlLk6GJQsqaUBKTNV-1" vertex="1">
          <mxGeometry x="630" y="460" width="40" height="40" as="geometry" />
        </mxCell>
        <mxCell id="E7rHuDmB5QC5V3yIihRZ-2" value="Yes" style="edgeStyle=orthogonalEdgeStyle;rounded=0;html=1;jettySize=auto;orthogonalLoop=1;fontSize=11;endArrow=classic;endFill=1;endSize=8;strokeWidth=1;shadow=0;labelBackgroundColor=none;exitX=0;exitY=0.5;exitDx=0;exitDy=0;entryX=0.5;entryY=0;entryDx=0;entryDy=0;" parent="WIyWlLk6GJQsqaUBKTNV-1" source="E7rHuDmB5QC5V3yIihRZ-3" target="E7rHuDmB5QC5V3yIihRZ-4" edge="1">
          <mxGeometry x="0.6" y="20" relative="1" as="geometry">
            <mxPoint as="offset" />
            <mxPoint x="284" y="1208" as="sourcePoint" />
            <mxPoint x="320" y="1270" as="targetPoint" />
          </mxGeometry>
        </mxCell>
        <mxCell id="E7rHuDmB5QC5V3yIihRZ-3" value="Validate es true?" style="rhombus;whiteSpace=wrap;html=1;" parent="WIyWlLk6GJQsqaUBKTNV-1" vertex="1">
          <mxGeometry x="180" y="1040" width="80" height="80" as="geometry" />
        </mxCell>
        <mxCell id="E7rHuDmB5QC5V3yIihRZ-6" style="edgeStyle=orthogonalEdgeStyle;rounded=0;orthogonalLoop=1;jettySize=auto;html=1;entryX=0.5;entryY=0;entryDx=0;entryDy=0;" parent="WIyWlLk6GJQsqaUBKTNV-1" source="E7rHuDmB5QC5V3yIihRZ-4" target="BhRJRYYAKcvQ0J8DfjrN-38" edge="1">
          <mxGeometry relative="1" as="geometry" />
        </mxCell>
        <mxCell id="E7rHuDmB5QC5V3yIihRZ-4" value="Hacer petición http de los links para obtener su estado" style="whiteSpace=wrap;html=1;" parent="WIyWlLk6GJQsqaUBKTNV-1" vertex="1">
          <mxGeometry x="50" y="1160" width="140" height="40" as="geometry" />
        </mxCell>
        <mxCell id="E7rHuDmB5QC5V3yIihRZ-5" value="No" style="edgeStyle=orthogonalEdgeStyle;rounded=0;html=1;jettySize=auto;orthogonalLoop=1;fontSize=11;endArrow=classic;endFill=1;endSize=8;strokeWidth=1;shadow=0;labelBackgroundColor=none;exitX=1;exitY=0.5;exitDx=0;exitDy=0;entryX=0.5;entryY=0;entryDx=0;entryDy=0;" parent="WIyWlLk6GJQsqaUBKTNV-1" source="E7rHuDmB5QC5V3yIihRZ-3" target="BhRJRYYAKcvQ0J8DfjrN-25" edge="1">
          <mxGeometry x="0.6" y="-20" relative="1" as="geometry">
            <mxPoint as="offset" />
            <mxPoint x="280" y="1130" as="sourcePoint" />
            <mxPoint x="345" y="1130" as="targetPoint" />
          </mxGeometry>
        </mxCell>
        <mxCell id="C8ftDMsVp3lCdtYubEuG-1" style="edgeStyle=orthogonalEdgeStyle;rounded=0;orthogonalLoop=1;jettySize=auto;html=1;" parent="WIyWlLk6GJQsqaUBKTNV-1" source="C8ftDMsVp3lCdtYubEuG-0" target="E7rHuDmB5QC5V3yIihRZ-3" edge="1">
          <mxGeometry relative="1" as="geometry" />
        </mxCell>
        <mxCell id="C8ftDMsVp3lCdtYubEuG-0" value="Extraer links en un array con objetos (propiedades: href/text/file/status)" style="rounded=0;whiteSpace=wrap;html=1;" parent="WIyWlLk6GJQsqaUBKTNV-1" vertex="1">
          <mxGeometry x="140" y="960" width="160" height="40" as="geometry" />
        </mxCell>
      </root>
    </mxGraphModel>
  </diagram>
  <diagram id="6YpdlspFfh-CgwEhxLKP" name="Page-2">
    <mxGraphModel dx="1303" dy="848" grid="1" gridSize="10" guides="1" tooltips="1" connect="1" arrows="1" fold="1" page="1" pageScale="1" pageWidth="827" pageHeight="1169" math="0" shadow="0">
      <root>
        <mxCell id="Re3q_bicI65L7OfS4d7Y-0" />
        <mxCell id="Re3q_bicI65L7OfS4d7Y-1" parent="Re3q_bicI65L7OfS4d7Y-0" />
        <mxCell id="TqOMjA8gUt00hM5vhaYG-0" value="Inicio" style="rounded=1;whiteSpace=wrap;html=1;fontSize=12;glass=0;strokeWidth=1;shadow=0;" vertex="1" parent="Re3q_bicI65L7OfS4d7Y-1">
          <mxGeometry x="1045" y="40" width="70" height="40" as="geometry" />
        </mxCell>
        <mxCell id="TqOMjA8gUt00hM5vhaYG-1" value="" style="rounded=0;html=1;jettySize=auto;orthogonalLoop=1;fontSize=11;endArrow=classic;endFill=1;endSize=8;strokeWidth=1;shadow=0;labelBackgroundColor=none;edgeStyle=orthogonalEdgeStyle;exitX=0.5;exitY=1;exitDx=0;exitDy=0;" edge="1" parent="Re3q_bicI65L7OfS4d7Y-1" source="TqOMjA8gUt00hM5vhaYG-0" target="TqOMjA8gUt00hM5vhaYG-3">
          <mxGeometry relative="1" as="geometry">
            <mxPoint x="890" y="50" as="sourcePoint" />
            <mxPoint x="260" y="130" as="targetPoint" />
          </mxGeometry>
        </mxCell>
        <mxCell id="TqOMjA8gUt00hM5vhaYG-2" value="" style="edgeStyle=orthogonalEdgeStyle;rounded=0;orthogonalLoop=1;jettySize=auto;html=1;" edge="1" parent="Re3q_bicI65L7OfS4d7Y-1" source="TqOMjA8gUt00hM5vhaYG-3" target="TqOMjA8gUt00hM5vhaYG-5">
          <mxGeometry relative="1" as="geometry" />
        </mxCell>
        <mxCell id="TqOMjA8gUt00hM5vhaYG-3" value="&lt;span&gt;array con objetos (propiedades: href/text/file)&lt;/span&gt;" style="shape=parallelogram;perimeter=parallelogramPerimeter;whiteSpace=wrap;html=1;fixedSize=1;" vertex="1" parent="Re3q_bicI65L7OfS4d7Y-1">
          <mxGeometry x="1010" y="120" width="140" height="40" as="geometry" />
        </mxCell>
        <mxCell id="TqOMjA8gUt00hM5vhaYG-4" value="" style="edgeStyle=orthogonalEdgeStyle;rounded=0;orthogonalLoop=1;jettySize=auto;html=1;" edge="1" parent="Re3q_bicI65L7OfS4d7Y-1" source="TqOMjA8gUt00hM5vhaYG-5" target="TqOMjA8gUt00hM5vhaYG-6">
          <mxGeometry relative="1" as="geometry" />
        </mxCell>
        <mxCell id="TqOMjA8gUt00hM5vhaYG-5" value="Llamar al API JS" style="whiteSpace=wrap;html=1;" vertex="1" parent="Re3q_bicI65L7OfS4d7Y-1">
          <mxGeometry x="1020" y="200" width="120" height="40" as="geometry" />
        </mxCell>
        <mxCell id="TqOMjA8gUt00hM5vhaYG-6" value="¿Opción&lt;br&gt;--validate?" style="rhombus;whiteSpace=wrap;html=1;" vertex="1" parent="Re3q_bicI65L7OfS4d7Y-1">
          <mxGeometry x="1040" y="280" width="80" height="80" as="geometry" />
        </mxCell>
        <mxCell id="TqOMjA8gUt00hM5vhaYG-7" value="Yes" style="rounded=0;html=1;jettySize=auto;orthogonalLoop=1;fontSize=11;endArrow=classic;endFill=1;endSize=8;strokeWidth=1;shadow=0;labelBackgroundColor=none;edgeStyle=orthogonalEdgeStyle;exitX=0.5;exitY=1;exitDx=0;exitDy=0;" edge="1" parent="Re3q_bicI65L7OfS4d7Y-1" source="TqOMjA8gUt00hM5vhaYG-6" target="TqOMjA8gUt00hM5vhaYG-8">
          <mxGeometry y="20" relative="1" as="geometry">
            <mxPoint as="offset" />
            <mxPoint x="260" y="410" as="sourcePoint" />
            <mxPoint x="1080" y="400" as="targetPoint" />
          </mxGeometry>
        </mxCell>
        <mxCell id="TqOMjA8gUt00hM5vhaYG-8" value="¿El link funciona?" style="rhombus;whiteSpace=wrap;html=1;rounded=0;" vertex="1" parent="Re3q_bicI65L7OfS4d7Y-1">
          <mxGeometry x="1040" y="400" width="80" height="80" as="geometry" />
        </mxCell>
        <mxCell id="TqOMjA8gUt00hM5vhaYG-9" value="Yes" style="rounded=0;html=1;jettySize=auto;orthogonalLoop=1;fontSize=11;endArrow=classic;endFill=1;endSize=8;strokeWidth=1;shadow=0;labelBackgroundColor=none;edgeStyle=orthogonalEdgeStyle;entryX=0.5;entryY=0;entryDx=0;entryDy=0;" edge="1" parent="Re3q_bicI65L7OfS4d7Y-1" source="TqOMjA8gUt00hM5vhaYG-8" target="TqOMjA8gUt00hM5vhaYG-11">
          <mxGeometry y="20" relative="1" as="geometry">
            <mxPoint as="offset" />
            <mxPoint x="1090" y="290" as="sourcePoint" />
            <mxPoint x="1080" y="520" as="targetPoint" />
          </mxGeometry>
        </mxCell>
        <mxCell id="TqOMjA8gUt00hM5vhaYG-10" style="edgeStyle=orthogonalEdgeStyle;rounded=0;orthogonalLoop=1;jettySize=auto;html=1;entryX=0;entryY=0.5;entryDx=0;entryDy=0;" edge="1" parent="Re3q_bicI65L7OfS4d7Y-1" source="TqOMjA8gUt00hM5vhaYG-11" target="TqOMjA8gUt00hM5vhaYG-16">
          <mxGeometry relative="1" as="geometry">
            <Array as="points">
              <mxPoint x="1010" y="700" />
            </Array>
          </mxGeometry>
        </mxCell>
        <mxCell id="TqOMjA8gUt00hM5vhaYG-11" value="Retorna &quot;ok&quot; después de la URL y status de la rspta recibida a la petición HTTP a dicha URL" style="rounded=0;whiteSpace=wrap;html=1;" vertex="1" parent="Re3q_bicI65L7OfS4d7Y-1">
          <mxGeometry x="950" y="560" width="120" height="80" as="geometry" />
        </mxCell>
        <mxCell id="TqOMjA8gUt00hM5vhaYG-12" value="No" style="edgeStyle=orthogonalEdgeStyle;rounded=0;html=1;jettySize=auto;orthogonalLoop=1;fontSize=11;endArrow=classic;endFill=1;endSize=8;strokeWidth=1;shadow=0;labelBackgroundColor=none;exitX=0.5;exitY=1;exitDx=0;exitDy=0;entryX=0.5;entryY=0;entryDx=0;entryDy=0;" edge="1" parent="Re3q_bicI65L7OfS4d7Y-1" source="TqOMjA8gUt00hM5vhaYG-8" target="TqOMjA8gUt00hM5vhaYG-14">
          <mxGeometry y="-20" relative="1" as="geometry">
            <mxPoint as="offset" />
            <mxPoint x="475" y="410" as="sourcePoint" />
            <mxPoint x="1180" y="560" as="targetPoint" />
          </mxGeometry>
        </mxCell>
        <mxCell id="TqOMjA8gUt00hM5vhaYG-13" style="edgeStyle=orthogonalEdgeStyle;rounded=0;orthogonalLoop=1;jettySize=auto;html=1;entryX=0;entryY=0.5;entryDx=0;entryDy=0;" edge="1" parent="Re3q_bicI65L7OfS4d7Y-1" source="TqOMjA8gUt00hM5vhaYG-14" target="TqOMjA8gUt00hM5vhaYG-16">
          <mxGeometry relative="1" as="geometry">
            <Array as="points">
              <mxPoint x="1150" y="700" />
            </Array>
          </mxGeometry>
        </mxCell>
        <mxCell id="TqOMjA8gUt00hM5vhaYG-14" value="&lt;span&gt;Retorna &quot;fail&quot; después de la URL y status de la rspta recibida a la petición HTTP a dicha URL&lt;/span&gt;" style="rounded=0;whiteSpace=wrap;html=1;" vertex="1" parent="Re3q_bicI65L7OfS4d7Y-1">
          <mxGeometry x="1090" y="560" width="120" height="80" as="geometry" />
        </mxCell>
        <mxCell id="TqOMjA8gUt00hM5vhaYG-15" value="" style="edgeStyle=orthogonalEdgeStyle;rounded=0;orthogonalLoop=1;jettySize=auto;html=1;" edge="1" parent="Re3q_bicI65L7OfS4d7Y-1" source="TqOMjA8gUt00hM5vhaYG-16" target="TqOMjA8gUt00hM5vhaYG-29">
          <mxGeometry relative="1" as="geometry" />
        </mxCell>
        <mxCell id="TqOMjA8gUt00hM5vhaYG-16" value="Truncado a 50 caracteres por línea." style="rounded=1;whiteSpace=wrap;html=1;arcSize=0;" vertex="1" parent="Re3q_bicI65L7OfS4d7Y-1">
          <mxGeometry x="1241" y="680" width="150" height="40" as="geometry" />
        </mxCell>
        <mxCell id="TqOMjA8gUt00hM5vhaYG-17" value="No" style="edgeStyle=orthogonalEdgeStyle;rounded=0;html=1;jettySize=auto;orthogonalLoop=1;fontSize=11;endArrow=classic;endFill=1;endSize=8;strokeWidth=1;shadow=0;labelBackgroundColor=none;exitX=1;exitY=0.5;exitDx=0;exitDy=0;entryX=0;entryY=0.5;entryDx=0;entryDy=0;" edge="1" parent="Re3q_bicI65L7OfS4d7Y-1" source="TqOMjA8gUt00hM5vhaYG-6" target="TqOMjA8gUt00hM5vhaYG-18">
          <mxGeometry y="-20" relative="1" as="geometry">
            <mxPoint as="offset" />
            <mxPoint x="1090" y="570" as="sourcePoint" />
            <mxPoint x="1191" y="320" as="targetPoint" />
          </mxGeometry>
        </mxCell>
        <mxCell id="TqOMjA8gUt00hM5vhaYG-18" value="&lt;span&gt;¿Opción&lt;/span&gt;&lt;br&gt;&lt;span&gt;--stats?&lt;/span&gt;" style="rhombus;whiteSpace=wrap;html=1;" vertex="1" parent="Re3q_bicI65L7OfS4d7Y-1">
          <mxGeometry x="1200" y="280" width="80" height="80" as="geometry" />
        </mxCell>
        <mxCell id="TqOMjA8gUt00hM5vhaYG-19" value="Yes" style="rounded=0;html=1;jettySize=auto;orthogonalLoop=1;fontSize=11;endArrow=classic;endFill=1;endSize=8;strokeWidth=1;shadow=0;labelBackgroundColor=none;edgeStyle=orthogonalEdgeStyle;exitX=0.5;exitY=1;exitDx=0;exitDy=0;" edge="1" parent="Re3q_bicI65L7OfS4d7Y-1" source="TqOMjA8gUt00hM5vhaYG-18" target="TqOMjA8gUt00hM5vhaYG-21">
          <mxGeometry y="20" relative="1" as="geometry">
            <mxPoint as="offset" />
            <mxPoint x="1231" y="360" as="sourcePoint" />
            <mxPoint x="1201" y="400" as="targetPoint" />
          </mxGeometry>
        </mxCell>
        <mxCell id="TqOMjA8gUt00hM5vhaYG-20" style="edgeStyle=orthogonalEdgeStyle;rounded=0;orthogonalLoop=1;jettySize=auto;html=1;exitX=1;exitY=0.5;exitDx=0;exitDy=0;" edge="1" parent="Re3q_bicI65L7OfS4d7Y-1" source="TqOMjA8gUt00hM5vhaYG-21" target="TqOMjA8gUt00hM5vhaYG-16">
          <mxGeometry relative="1" as="geometry" />
        </mxCell>
        <mxCell id="TqOMjA8gUt00hM5vhaYG-21" value="Retorna el total de enlaces y los únicos. Ejm:&lt;br&gt;Total: 3&lt;br&gt;Unique: 3" style="rounded=0;whiteSpace=wrap;html=1;" vertex="1" parent="Re3q_bicI65L7OfS4d7Y-1">
          <mxGeometry x="1195" y="400" width="90" height="80" as="geometry" />
        </mxCell>
        <mxCell id="TqOMjA8gUt00hM5vhaYG-22" value="No" style="edgeStyle=orthogonalEdgeStyle;rounded=0;html=1;jettySize=auto;orthogonalLoop=1;fontSize=11;endArrow=classic;endFill=1;endSize=8;strokeWidth=1;shadow=0;labelBackgroundColor=none;exitX=1;exitY=0.5;exitDx=0;exitDy=0;" edge="1" parent="Re3q_bicI65L7OfS4d7Y-1" source="TqOMjA8gUt00hM5vhaYG-18" target="TqOMjA8gUt00hM5vhaYG-23">
          <mxGeometry y="-20" relative="1" as="geometry">
            <mxPoint as="offset" />
            <mxPoint x="1130" y="330" as="sourcePoint" />
            <mxPoint x="1370" y="320" as="targetPoint" />
          </mxGeometry>
        </mxCell>
        <mxCell id="TqOMjA8gUt00hM5vhaYG-23" value="&lt;span style=&quot;color: rgb(0 , 0 , 0) ; font-family: &amp;#34;helvetica&amp;#34; ; font-size: 12px ; font-style: normal ; font-weight: 400 ; letter-spacing: normal ; text-align: center ; text-indent: 0px ; text-transform: none ; word-spacing: 0px ; background-color: rgb(248 , 249 , 250)&quot;&gt;¿Opción&lt;/span&gt;&lt;br style=&quot;color: rgb(0 , 0 , 0) ; font-family: &amp;#34;helvetica&amp;#34; ; font-size: 12px ; font-style: normal ; font-weight: 400 ; letter-spacing: normal ; text-align: center ; text-indent: 0px ; text-transform: none ; word-spacing: 0px ; background-color: rgb(248 , 249 , 250)&quot;&gt;&lt;span style=&quot;color: rgb(0 , 0 , 0) ; font-family: &amp;#34;helvetica&amp;#34; ; font-size: 12px ; font-style: normal ; font-weight: 400 ; letter-spacing: normal ; text-align: center ; text-indent: 0px ; text-transform: none ; word-spacing: 0px ; background-color: rgb(248 , 249 , 250)&quot;&gt;--stats y &lt;br&gt;--validate?&lt;/span&gt;" style="rhombus;whiteSpace=wrap;html=1;" vertex="1" parent="Re3q_bicI65L7OfS4d7Y-1">
          <mxGeometry x="1360" y="270" width="100" height="100" as="geometry" />
        </mxCell>
        <mxCell id="TqOMjA8gUt00hM5vhaYG-24" value="Yes" style="rounded=0;html=1;jettySize=auto;orthogonalLoop=1;fontSize=11;endArrow=classic;endFill=1;endSize=8;strokeWidth=1;shadow=0;labelBackgroundColor=none;edgeStyle=orthogonalEdgeStyle;" edge="1" parent="Re3q_bicI65L7OfS4d7Y-1" source="TqOMjA8gUt00hM5vhaYG-23" target="TqOMjA8gUt00hM5vhaYG-26">
          <mxGeometry y="20" relative="1" as="geometry">
            <mxPoint as="offset" />
            <mxPoint x="1250" y="370" as="sourcePoint" />
            <mxPoint x="1410" y="400" as="targetPoint" />
          </mxGeometry>
        </mxCell>
        <mxCell id="TqOMjA8gUt00hM5vhaYG-25" style="edgeStyle=orthogonalEdgeStyle;rounded=0;orthogonalLoop=1;jettySize=auto;html=1;entryX=0.5;entryY=0;entryDx=0;entryDy=0;exitX=0.013;exitY=0.369;exitDx=0;exitDy=0;exitPerimeter=0;" edge="1" parent="Re3q_bicI65L7OfS4d7Y-1" source="TqOMjA8gUt00hM5vhaYG-26" target="TqOMjA8gUt00hM5vhaYG-16">
          <mxGeometry relative="1" as="geometry">
            <mxPoint x="1310" y="438" as="sourcePoint" />
            <Array as="points">
              <mxPoint x="1316" y="441" />
            </Array>
          </mxGeometry>
        </mxCell>
        <mxCell id="TqOMjA8gUt00hM5vhaYG-26" value="&lt;span style=&quot;color: rgb(0 , 0 , 0) ; font-family: &amp;#34;helvetica&amp;#34; ; font-size: 12px ; font-style: normal ; font-weight: 400 ; letter-spacing: normal ; text-align: center ; text-indent: 0px ; text-transform: none ; word-spacing: 0px ; background-color: rgb(248 , 249 , 250) ; display: inline ; float: none&quot;&gt;Retorna enlaces únicos, el total y número de rotos. Ejm:&lt;/span&gt;&lt;br style=&quot;color: rgb(0 , 0 , 0) ; font-family: &amp;#34;helvetica&amp;#34; ; font-size: 12px ; font-style: normal ; font-weight: 400 ; letter-spacing: normal ; text-align: center ; text-indent: 0px ; text-transform: none ; word-spacing: 0px ; background-color: rgb(248 , 249 , 250)&quot;&gt;&lt;span style=&quot;color: rgb(0 , 0 , 0) ; font-family: &amp;#34;helvetica&amp;#34; ; font-size: 12px ; font-style: normal ; font-weight: 400 ; letter-spacing: normal ; text-align: center ; text-indent: 0px ; text-transform: none ; word-spacing: 0px ; background-color: rgb(248 , 249 , 250) ; display: inline ; float: none&quot;&gt;Total: 3&lt;/span&gt;&lt;br style=&quot;color: rgb(0 , 0 , 0) ; font-family: &amp;#34;helvetica&amp;#34; ; font-size: 12px ; font-style: normal ; font-weight: 400 ; letter-spacing: normal ; text-align: center ; text-indent: 0px ; text-transform: none ; word-spacing: 0px ; background-color: rgb(248 , 249 , 250)&quot;&gt;&lt;span style=&quot;color: rgb(0 , 0 , 0) ; font-family: &amp;#34;helvetica&amp;#34; ; font-size: 12px ; font-style: normal ; font-weight: 400 ; letter-spacing: normal ; text-align: center ; text-indent: 0px ; text-transform: none ; word-spacing: 0px ; background-color: rgb(248 , 249 , 250) ; display: inline ; float: none&quot;&gt;Unique: 3&lt;/span&gt;&lt;br&gt;Broken: 1" style="rounded=0;whiteSpace=wrap;html=1;" vertex="1" parent="Re3q_bicI65L7OfS4d7Y-1">
          <mxGeometry x="1350" y="400" width="120" height="110" as="geometry" />
        </mxCell>
        <mxCell id="TqOMjA8gUt00hM5vhaYG-27" value="No" style="edgeStyle=orthogonalEdgeStyle;rounded=0;html=1;jettySize=auto;orthogonalLoop=1;fontSize=11;endArrow=classic;endFill=1;endSize=8;strokeWidth=1;shadow=0;labelBackgroundColor=none;exitX=1;exitY=0.5;exitDx=0;exitDy=0;entryX=1;entryY=0.5;entryDx=0;entryDy=0;" edge="1" parent="Re3q_bicI65L7OfS4d7Y-1" source="TqOMjA8gUt00hM5vhaYG-23" target="TqOMjA8gUt00hM5vhaYG-16">
          <mxGeometry y="-20" relative="1" as="geometry">
            <mxPoint as="offset" />
            <mxPoint x="1290" y="330" as="sourcePoint" />
            <mxPoint x="1520" y="320" as="targetPoint" />
          </mxGeometry>
        </mxCell>
        <mxCell id="TqOMjA8gUt00hM5vhaYG-28" style="edgeStyle=orthogonalEdgeStyle;rounded=0;orthogonalLoop=1;jettySize=auto;html=1;entryX=0.5;entryY=0;entryDx=0;entryDy=0;" edge="1" parent="Re3q_bicI65L7OfS4d7Y-1" source="TqOMjA8gUt00hM5vhaYG-29" target="TqOMjA8gUt00hM5vhaYG-30">
          <mxGeometry relative="1" as="geometry" />
        </mxCell>
        <mxCell id="TqOMjA8gUt00hM5vhaYG-29" value="Mostrar consola" style="whiteSpace=wrap;html=1;rounded=1;arcSize=0;" vertex="1" parent="Re3q_bicI65L7OfS4d7Y-1">
          <mxGeometry x="1256" y="760" width="120" height="40" as="geometry" />
        </mxCell>
        <mxCell id="TqOMjA8gUt00hM5vhaYG-30" value="Fin" style="rounded=1;whiteSpace=wrap;html=1;" vertex="1" parent="Re3q_bicI65L7OfS4d7Y-1">
          <mxGeometry x="1274" y="840" width="84" height="40" as="geometry" />
        </mxCell>
      </root>
    </mxGraphModel>
  </diagram>
</mxfile>
